<svg viewBox="0 0 64 64" xmlns="http://www.w3.org/2000/svg"><g id="Arrow_Down" data-name="Arrow Down"><path d="m53.5566 23.5464-20.1566 19.7636a1.9478 1.9478 0 0 1 -.1635.1312c-.046.0366-.0891.0784-.1375.11a1.9309 1.9309 0 0 1 -.203.1083c-.0484.0244-.0945.0546-.1443.0748a1.9888 1.9888 0 0 1 -.2469.0741c-.0414.0108-.0812.0279-.1231.036a1.9873 1.9873 0 0 1 -.7639 0c-.0463-.009-.0906-.0276-.1363-.04a1.9777 1.9777 0 0 1 -.2333-.07c-.0542-.0219-.1043-.0544-.1567-.0812a1.9575 1.9575 0 0 1 -.1905-.1017c-.05-.0332-.0951-.0764-.1429-.1145a1.97 1.97 0 0 1 -.1581-.127l-20.1566-19.7636a2 2 0 1 1 2.8007-2.8564l18.7559 18.3905 18.7559-18.3905a2 2 0 1 1 2.8007 2.8565z" fill="#222"/></g></svg>