<svg id="Layer_1" height="512" viewBox="0 0 512 512" width="512" xmlns="http://www.w3.org/2000/svg" data-name="Layer 1"><path d="m474.948 20.048a13.5 13.5 0 1 1 18.928 19.245l-459.902 452.659a13.5 13.5 0 1 1 -18.927-19.245l120.093-118.2q-67.57-31.247-135.14-97.362 165.891-167.345 342.782-107.012zm-287.448 282.918 19.9-19.582a54.888 54.888 0 0 1 74.652-73.477l19.9-19.582a81.949 81.949 0 0 0 -114.452 112.641zm107.524-5.835a54.7 54.7 0 0 0 15.963-35.342l-51.305 51.3a54.688 54.688 0 0 0 35.342-15.962zm43.14-38.8a82 82 0 0 1 -102.942 79.221l-38.234 38.234q157.512 35.631 315.012-118.199-57.408-52.861-113.724-83.087l-62.827 62.827a82.037 82.037 0 0 1 2.718 21.005z" fill-rule="evenodd"/></svg>