<svg width="28" height="28" viewBox="0 0 28 28" fill="none" xmlns="http://www.w3.org/2000/svg">
<path d="M13.84 10.1867C15.5467 10.2667 15.9867 11.7201 16.0134 12.4001H18.4C18.2934 9.76008 16.4134 8.14675 13.8 8.14675C10.8534 8.14675 8.66669 10.0001 8.66669 14.1867C8.66669 16.7734 9.90669 19.8401 13.7867 19.8401C16.7467 19.8401 18.3334 17.6401 18.3734 15.9067H15.9867C15.9467 16.6934 15.3867 17.7467 13.8134 17.8267C12.0667 17.7734 11.3334 16.4134 11.3334 14.1867C11.3334 10.3334 13.04 10.2134 13.84 10.1867ZM14 0.666748C6.64002 0.666748 0.666687 6.64008 0.666687 14.0001C0.666687 21.3601 6.64002 27.3334 14 27.3334C21.36 27.3334 27.3334 21.3601 27.3334 14.0001C27.3334 6.64008 21.36 0.666748 14 0.666748ZM14 24.6667C8.12002 24.6667 3.33335 19.8801 3.33335 14.0001C3.33335 8.12008 8.12002 3.33341 14 3.33341C19.88 3.33341 24.6667 8.12008 24.6667 14.0001C24.6667 19.8801 19.88 24.6667 14 24.6667Z" fill="#E1E1E1" fill-opacity="0.6"/>
</svg>
